<?xml version="1.0" encoding="UTF-8" standalone="no"?>
<!DOCTYPE svg PUBLIC "-//W3C//DTD SVG 1.1//EN"
 "http://www.w3.org/Graphics/SVG/1.1/DTD/svg11.dtd">
<!-- Generated by graphviz version 2.43.0 (0)
 -->
<!-- Title: %3 Pages: 1 -->
<svg width="1095pt" height="332pt"
 viewBox="0.00 0.00 1095.21 332.00" xmlns="http://www.w3.org/2000/svg" xmlns:xlink="http://www.w3.org/1999/xlink">
<g id="graph0" class="graph" transform="scale(1 1) rotate(0) translate(4 328)">
<title>%3</title>
<polygon fill="white" stroke="transparent" points="-4,4 -4,-328 1091.21,-328 1091.21,4 -4,4"/>
<!-- [root] aws_instance.example (expand) -->
<g id="node1" class="node">
<title>[root] aws_instance.example (expand)</title>
<polygon fill="none" stroke="black" points="616.38,-180 440.38,-180 440.38,-144 616.38,-144 616.38,-180"/>
<text text-anchor="middle" x="528.38" y="-158.3" font-family="Times,serif" font-size="14.00">aws_instance.example</text>
</g>
<!-- [root] aws_security_group.instance (expand) -->
<g id="node2" class="node">
<title>[root] aws_security_group.instance (expand)</title>
<polygon fill="none" stroke="black" points="639.38,-108 417.38,-108 417.38,-72 639.38,-72 639.38,-108"/>
<text text-anchor="middle" x="528.38" y="-86.3" font-family="Times,serif" font-size="14.00">aws_security_group.instance</text>
</g>
<!-- [root] aws_instance.example (expand)&#45;&gt;[root] aws_security_group.instance (expand) -->
<g id="edge1" class="edge">
<title>[root] aws_instance.example (expand)&#45;&gt;[root] aws_security_group.instance (expand)</title>
<path fill="none" stroke="black" d="M528.38,-143.7C528.38,-135.98 528.38,-126.71 528.38,-118.11"/>
<polygon fill="black" stroke="black" points="531.88,-118.1 528.38,-108.1 524.88,-118.1 531.88,-118.1"/>
</g>
<!-- [root] provider[&quot;registry.terraform.io/hashicorp/aws&quot;] -->
<g id="node3" class="node">
<title>[root] provider[&quot;registry.terraform.io/hashicorp/aws&quot;]</title>
<polygon fill="none" stroke="black" points="325.38,-36 0.12,-18 325.38,0 650.65,-18 325.38,-36"/>
<text text-anchor="middle" x="325.38" y="-14.3" font-family="Times,serif" font-size="14.00">provider[&quot;registry.terraform.io/hashicorp/aws&quot;]</text>
</g>
<!-- [root] aws_security_group.instance (expand)&#45;&gt;[root] provider[&quot;registry.terraform.io/hashicorp/aws&quot;] -->
<g id="edge2" class="edge">
<title>[root] aws_security_group.instance (expand)&#45;&gt;[root] provider[&quot;registry.terraform.io/hashicorp/aws&quot;]</title>
<path fill="none" stroke="black" d="M478.98,-71.97C448.38,-61.41 409.1,-47.87 377.93,-37.12"/>
<polygon fill="black" stroke="black" points="378.71,-33.69 368.11,-33.73 376.42,-40.3 378.71,-33.69"/>
</g>
<!-- [root] var.server_port -->
<g id="node4" class="node">
<title>[root] var.server_port</title>
<polygon fill="none" stroke="black" points="787.88,-36 668.88,-36 668.88,0 793.88,0 793.88,-30 787.88,-36"/>
<polyline fill="none" stroke="black" points="787.88,-36 787.88,-30 "/>
<polyline fill="none" stroke="black" points="793.88,-30 787.88,-30 "/>
<text text-anchor="middle" x="731.38" y="-14.3" font-family="Times,serif" font-size="14.00">var.server_port</text>
</g>
<!-- [root] aws_security_group.instance (expand)&#45;&gt;[root] var.server_port -->
<g id="edge3" class="edge">
<title>[root] aws_security_group.instance (expand)&#45;&gt;[root] var.server_port</title>
<path fill="none" stroke="black" d="M577.78,-71.97C606.27,-62.14 642.27,-49.73 672.25,-39.39"/>
<polygon fill="black" stroke="black" points="673.45,-42.68 681.76,-36.11 671.17,-36.06 673.45,-42.68"/>
</g>
<!-- [root] meta.count&#45;boundary (EachMode fixup) -->
<g id="node5" class="node">
<title>[root] meta.count&#45;boundary (EachMode fixup)</title>
<ellipse fill="none" stroke="black" cx="262.38" cy="-234" rx="222.86" ry="18"/>
<text text-anchor="middle" x="262.38" y="-230.3" font-family="Times,serif" font-size="14.00">[root] meta.count&#45;boundary (EachMode fixup)</text>
</g>
<!-- [root] meta.count&#45;boundary (EachMode fixup)&#45;&gt;[root] aws_instance.example (expand) -->
<g id="edge4" class="edge">
<title>[root] meta.count&#45;boundary (EachMode fixup)&#45;&gt;[root] aws_instance.example (expand)</title>
<path fill="none" stroke="black" d="M324.41,-216.68C362.99,-206.52 412.83,-193.41 453.59,-182.68"/>
<polygon fill="black" stroke="black" points="454.69,-186.01 463.47,-180.08 452.91,-179.24 454.69,-186.01"/>
</g>
<!-- [root] provider[&quot;registry.terraform.io/hashicorp/aws&quot;] (close) -->
<g id="node6" class="node">
<title>[root] provider[&quot;registry.terraform.io/hashicorp/aws&quot;] (close)</title>
<ellipse fill="none" stroke="black" cx="795.38" cy="-234" rx="291.65" ry="18"/>
<text text-anchor="middle" x="795.38" y="-230.3" font-family="Times,serif" font-size="14.00">[root] provider[&quot;registry.terraform.io/hashicorp/aws&quot;] (close)</text>
</g>
<!-- [root] provider[&quot;registry.terraform.io/hashicorp/aws&quot;] (close)&#45;&gt;[root] aws_instance.example (expand) -->
<g id="edge5" class="edge">
<title>[root] provider[&quot;registry.terraform.io/hashicorp/aws&quot;] (close)&#45;&gt;[root] aws_instance.example (expand)</title>
<path fill="none" stroke="black" d="M732.11,-216.41C693.5,-206.29 643.94,-193.3 603.37,-182.66"/>
<polygon fill="black" stroke="black" points="604.08,-179.23 593.52,-180.08 602.31,-186 604.08,-179.23"/>
</g>
<!-- [root] root -->
<g id="node7" class="node">
<title>[root] root</title>
<ellipse fill="none" stroke="black" cx="528.38" cy="-306" rx="58.49" ry="18"/>
<text text-anchor="middle" x="528.38" y="-302.3" font-family="Times,serif" font-size="14.00">[root] root</text>
</g>
<!-- [root] root&#45;&gt;[root] meta.count&#45;boundary (EachMode fixup) -->
<g id="edge6" class="edge">
<title>[root] root&#45;&gt;[root] meta.count&#45;boundary (EachMode fixup)</title>
<path fill="none" stroke="black" d="M485.35,-293.68C444.63,-282.96 382.73,-266.67 334.48,-253.97"/>
<polygon fill="black" stroke="black" points="335.27,-250.56 324.71,-251.4 333.49,-257.33 335.27,-250.56"/>
</g>
<!-- [root] root&#45;&gt;[root] provider[&quot;registry.terraform.io/hashicorp/aws&quot;] (close) -->
<g id="edge7" class="edge">
<title>[root] root&#45;&gt;[root] provider[&quot;registry.terraform.io/hashicorp/aws&quot;] (close)</title>
<path fill="none" stroke="black" d="M571.28,-293.75C611.89,-283.11 673.69,-266.9 722.11,-254.21"/>
<polygon fill="black" stroke="black" points="723.13,-257.56 731.92,-251.64 721.36,-250.79 723.13,-257.56"/>
</g>
</g>
</svg>
